<?xml version="1.0" encoding="utf-8"?>
<!-- Generator: Adobe Illustrator 22.1.0, SVG Export Plug-In . SVG Version: 6.00 Build 0)  -->
<svg version="1.1" id="Layer_1" xmlns="http://www.w3.org/2000/svg" xmlns:xlink="http://www.w3.org/1999/xlink" x="0px" y="0px"
	 viewBox="0 0 362 33" style="enable-background:new 0 0 362 33;" xml:space="preserve">
<style type="text/css">
	.st0{fill:#FFFFFF;}
</style>
<g>
	<path class="st0" d="M0,32.3c1.9-3.9,4.4-9.4,7.4-16.5c2.3-5.3,4.3-10.5,6.1-15.6c0.8,0.1,1.4,0.1,1.8,0.1c0.4,0,1,0,1.9-0.1
		l1.1,3.1c4.3,11.7,8.3,21.4,12.1,29c-2.2-0.1-3.6-0.1-4.3-0.1c-0.8,0-2.1,0-4,0.1c-0.9-2.9-1.9-6-3.1-9.2c-2.2-0.2-4-0.4-5.6-0.4
		c-1.5,0-3.3,0.1-5.4,0.4c-1,2.8-2,5.9-3,9.2c-1.1-0.1-1.9-0.1-2.4-0.1S1.1,32.3,0,32.3z M9.3,19.5c1.7,0.2,3.2,0.3,4.3,0.3
		s2.4-0.1,3.9-0.3l-0.7-1.9c-1.3-3.4-2.5-6.2-3.3-8.3c-0.5,1.1-1.1,2.7-2.1,5.1C10.7,16,10,17.7,9.3,19.5z"/>
	<path class="st0" d="M48.3,32.3c0.2-4.2,0.4-9.7,0.4-16.5c0-4.9-0.1-10.1-0.4-15.6c1,0.1,1.8,0.1,2.3,0.1c0.5,0,1.3,0,2.3-0.1
		c3.2,4.2,9.8,11.5,19.8,22c0-1.9,0.1-3.1,0.1-3.6c0.1-2.7,0.1-4.6,0.1-5.4s-0.1-4.3-0.3-10.6l-0.1-2.4c0.9,0.1,1.5,0.1,2,0.1
		c0.4,0,1.1,0,1.9-0.1c-0.2,6.4-0.4,11.3-0.4,14.6c0,3.1,0.1,6,0.2,8.7c0.1,2.9,0.2,4.6,0.2,5.3c0,0.3,0,1,0,2.1c0,0.3,0,0.8,0,1.5
		c-1-0.1-1.7-0.1-2.2-0.1c-0.5,0-1.3,0-2.3,0.1c-2.4-3.1-5.1-6.3-8.1-9.6c-4.5-4.9-8.5-9.2-11.8-12.7c-0.1,2.3-0.1,4.6-0.1,6.7
		c0,6.8,0.1,12,0.4,15.6c-0.9-0.1-1.5-0.1-2-0.1C49.8,32.3,49.1,32.3,48.3,32.3z"/>
	<path class="st0" d="M97.9,32.3c0.2-4.2,0.4-9.7,0.4-16.5c0-4.9-0.1-10.1-0.4-15.6c1,0.1,1.8,0.1,2.3,0.1c0.5,0,1.3,0,2.3-0.1
		c3.2,4.2,9.8,11.5,19.8,22c0-1.9,0.1-3.1,0.1-3.6c0.1-2.7,0.1-4.6,0.1-5.4s-0.1-4.3-0.3-10.6l-0.1-2.4c0.9,0.1,1.5,0.1,2,0.1
		c0.4,0,1.1,0,1.9-0.1c-0.2,6.4-0.4,11.3-0.4,14.6c0,3.1,0.1,6,0.2,8.7c0.1,2.9,0.2,4.6,0.2,5.3c0,0.3,0,1,0,2.1c0,0.3,0,0.8,0,1.5
		c-1-0.1-1.7-0.1-2.2-0.1s-1.3,0-2.3,0.1c-2.4-3.1-5.1-6.3-8.1-9.6c-4.5-4.9-8.5-9.2-11.8-12.7c-0.1,2.3-0.1,4.6-0.1,6.7
		c0,6.8,0.1,12,0.4,15.6c-0.9-0.1-1.5-0.1-2-0.1S98.8,32.3,97.9,32.3z"/>
	<path class="st0" d="M143.6,32.3c1.9-3.9,4.4-9.4,7.4-16.5c2.2-5.3,4.2-10.5,6-15.6c0.8,0.1,1.4,0.1,1.8,0.1c0.4,0,1,0,1.9-0.1
		l1.1,3.1c4.3,11.7,8.3,21.4,12.1,29c-2.2-0.1-3.6-0.1-4.3-0.1c-0.8,0-2.1,0-4,0.1c-0.9-2.9-1.9-6-3.1-9.2c-2.2-0.2-4-0.4-5.6-0.4
		c-1.5,0-3.3,0.1-5.4,0.4c-1,2.8-2,5.9-3,9.2c-1.1-0.1-1.9-0.1-2.4-0.1C145.5,32.2,144.7,32.3,143.6,32.3z M152.9,19.5
		c1.7,0.2,3.2,0.3,4.3,0.3c1.1,0,2.4-0.1,3.9-0.3l-0.7-1.9c-1.3-3.4-2.5-6.2-3.3-8.3c-0.5,1.1-1.1,2.7-2.1,5.1
		C154.3,16,153.6,17.7,152.9,19.5z"/>
	<path class="st0" d="M191.4,32.3c0.2-1.8,0.3-3.8,0.3-6.1c0-2.2,0-5.8,0.1-10.6c0,0,0-2,0-5.8c0-0.8,0-1.8,0-3.1V5.3
		c0-1.8-0.1-3.5-0.3-5.1c1.3,0.1,2.6,0.1,3.9,0.1c1.5,0,2.8,0,4.2,0c1.9,0,3.4-0.1,4.5-0.1c2.9,0,5.1,0.6,6.6,1.9
		c1.6,1.3,2.3,3.1,2.3,5.2c0,2.2-0.8,3.9-2.5,5.4c-1,0.8-2.4,1.5-4.3,2c2,0.6,3.5,1.3,4.6,2.2c1.9,1.5,2.9,3.6,2.9,6.2
		c0,2.2-0.6,4.1-1.9,5.7c-1.8,2.4-4.9,3.5-9.1,3.5c-0.6,0-1.9,0-3.8-0.1c-0.9,0-2.1,0-3.4,0C194.1,32.2,192.8,32.3,191.4,32.3z
		 M198.6,14h0.2h0.2c2.1,0,3.6-0.3,4.6-1c0.7-0.5,1.3-1.2,1.7-2.1c0.4-0.8,0.5-1.7,0.5-2.6c0-1.6-0.5-2.8-1.4-3.7
		c-0.8-0.8-2.1-1.2-3.7-1.2c-0.5,0-1.2,0-2.1,0.1c0,0.7,0,2.3-0.1,4.8c0,0.5,0,1.8,0,3.9L198.6,14L198.6,14z M198.6,17
		c0,2,0,3.7,0,4.9c0,1.2,0,3.5,0.1,7.1c0.9,0.1,1.7,0.2,2.3,0.2c1.7,0,3.1-0.6,4.1-1.9c1-1.3,1.4-2.8,1.4-4.6c0-1.7-0.5-3.1-1.5-4.1
		c-0.5-0.6-1.3-1-2.1-1.3c-0.8-0.3-1.5-0.4-2.3-0.4C200,16.9,199.4,17,198.6,17z"/>
	<path class="st0" d="M233.4,32.6c0.3-3,0.4-6.5,0.4-10.6v-5.3c0-8.5-0.2-14.1-0.4-16.7c2.6,0.2,6,0.4,10.2,0.4
		c2.5,0,5.1-0.1,7.7-0.4c-0.1,0.8-0.1,1.4-0.1,1.9c0,0.4,0,1,0.1,1.8c-3.6-0.2-7.2-0.3-10.7-0.4c0,1.5,0,2.9,0,4c0,0.2,0,2.1,0,5.8
		V14h0.6h1.3c2.2,0,5-0.1,8.4-0.4c-0.1,0.9-0.1,1.7-0.1,2.1c0,0.5,0,1.2,0.1,2.1c-2.6-0.2-5.2-0.4-7.7-0.4c-0.7,0-1.6,0-2.7,0V19
		c0,4,0,6.3,0,6.7c0,1,0,2.2,0,3.4c1.5,0,2.3,0,2.4,0c1.7,0,4.5-0.1,8.2-0.4c-0.1,0.8-0.1,1.4-0.1,1.8s0,1,0.1,1.9
		c-4.5-0.2-8.3-0.4-11.5-0.4C238,32.2,235.9,32.4,233.4,32.6z"/>
	<path class="st0" d="M270.9,32.6c0.1-1.9,0.2-3.7,0.3-5.2c0-1.7,0.1-5.8,0.1-12.3v-4.2V6.8c0-2.3-0.1-4.4-0.4-6.5
		c1.7,0.1,2.9,0.1,3.8,0.1c0.9,0,2.1,0,3.7-0.1c-0.2,2-0.3,3.9-0.3,5.6c0,0.8,0,3.9,0,9.3c0,4.9,0,7.5,0,7.8c0,1.1,0.1,3.2,0.2,6.3
		c4.6,0,8.2-0.1,10.8-0.4c-0.1,0.8-0.1,1.4-0.1,1.9c0,0.4,0,1,0.1,1.8c-2.8-0.2-6.1-0.4-10-0.4C276.1,32.2,273.5,32.4,270.9,32.6z"
		/>
	<path class="st0" d="M307.8,32.6c0.1-1.9,0.2-3.7,0.3-5.2c0-1.7,0.1-5.8,0.1-12.3v-4.2V6.8c0-2.3-0.1-4.4-0.4-6.5
		c1.7,0.1,2.9,0.1,3.8,0.1c0.9,0,2.1,0,3.7-0.1c-0.2,2-0.3,3.9-0.3,5.6c0,0.8,0,3.9,0,9.3c0,4.9,0,7.5,0,7.8c0,1.1,0.1,3.2,0.2,6.3
		c4.6,0,8.2-0.1,10.8-0.4c-0.1,0.8-0.1,1.4-0.1,1.9c0,0.4,0,1,0.1,1.8c-2.8-0.2-6.1-0.4-10-0.4C313,32.2,310.3,32.4,307.8,32.6z"/>
	<path class="st0" d="M344.2,32.6c0.3-3,0.4-6.5,0.4-10.6v-5.3c0-8.5-0.2-14.1-0.4-16.7c2.6,0.2,6,0.4,10.1,0.4
		c2.5,0,5.1-0.1,7.7-0.4c-0.1,0.8-0.1,1.4-0.1,1.9c0,0.4,0,1,0.1,1.8c-3.6-0.2-7.2-0.3-10.7-0.4c0,1.5,0,2.9,0,4c0,0.2,0,2.1,0,5.8
		V14h0.6h1.3c2.2,0,5-0.1,8.4-0.4c-0.1,0.9-0.1,1.7-0.1,2.1c0,0.5,0,1.2,0.1,2.1c-2.6-0.2-5.2-0.4-7.7-0.4c-0.7,0-1.6,0-2.7,0V19
		c0,4,0,6.3,0,6.7c0,1,0,2.2,0,3.4c1.5,0,2.3,0,2.4,0c1.7,0,4.5-0.1,8.2-0.4c-0.1,0.8-0.1,1.4-0.1,1.8s0,1,0.1,1.9
		c-4.5-0.2-8.3-0.4-11.5-0.4C348.7,32.2,346.6,32.4,344.2,32.6z"/>
</g>
</svg>
